# xmcd
# 
# Track frame offsets:
#     150
#     25211
#     40324
#     57569
#     73682
#     99215
#     107228
#     123477
#     140168
#     159764
#     179476
# 
# Disc length: 2697
# 
# Revision: 0
# Processed by: cddbd v1.5.2PL0 Copyright (c) Steve Scherf et al.
# Submitted via: fre:ac v1.1beta1pre4
# 
DISCID=9b0a870b
DTITLE=36 Crazyfists - Collisions And Castaways
DYEAR=2010
DGENRE=Metalcore
TTITLE0=In the Midnights
TTITLE1=Whitewater
TTITLE2=Mercy and Grace
TTITLE3=Death Renames the Light
TTITLE4=Anchors
TTITLE5=Long Roads to Late Nights
TTITLE6=Trenches
TTITLE7=Reviver
TTITLE8=Caving in Spirals
TTITLE9=The Deserter
TTITLE10=Waterhaul II
EXTD=Force of Natures 8/8 Trample
EXTT0=
EXTT1=
EXTT2=
EXTT3=
EXTT4=
EXTT5=
EXTT6=
EXTT7=
EXTT8=
EXTT9=
EXTT10=
PLAYORDER=
